<?xml version="1.0" encoding="UTF-8" standalone="no"?>
<!DOCTYPE svg PUBLIC "-//W3C//DTD SVG 1.1//EN" "http://www.w3.org/Graphics/SVG/1.1/DTD/svg11.dtd">
<svg width="100%" height="100%" viewBox="0 0 5000 3600" version="1.1" xmlns="http://www.w3.org/2000/svg" xmlns:xlink="http://www.w3.org/1999/xlink" xml:space="preserve" xmlns:serif="http://www.serif.com/" style="fill-rule:evenodd;clip-rule:evenodd;stroke-linejoin:round;stroke-miterlimit:2;">
    <g transform="matrix(-0.491596,-0.695431,0.695431,-0.491596,2442.7,1967.33)">
        <g transform="matrix(1,5.55112e-17,-5.55112e-17,1,-260.539,65.1235)">
            <path d="M602.304,1424.88C587.169,1366.59 535.367,1325.31 476.342,1353.01C447.027,1366.76 472.563,1410.18 501.757,1396.49C547.042,1375.24 558.92,1451.47 557.081,1475.76C554.271,1512.84 534.495,1551.37 497.789,1562.83C465.194,1573 417.077,1569.03 402.113,1533.91C387.965,1500.7 407.264,1464.87 423.739,1436.68C440.125,1408.65 396.621,1383.28 380.259,1411.27C350.708,1461.83 327.854,1531.2 371.906,1581.41C412.334,1627.49 501.064,1630 548.678,1594.32C598.78,1556.77 617.613,1483.84 602.304,1424.88Z" style="fill:rgb(3,4,4);fill-rule:nonzero;"/>
        </g>
        <g transform="matrix(1,5.55112e-17,-5.55112e-17,1,-260.539,65.1235)">
            <path d="M506.869,1486.06C498.226,1478.13 487.612,1477.22 478.15,1481.73C480.767,1471.1 477.068,1458.89 466.843,1453.48C455.109,1447.29 439.085,1450.14 432.396,1462.52C421.311,1483.02 425.028,1509.81 443.951,1524.43C463.411,1539.47 488.51,1536.91 506.869,1521.67C517.043,1513.22 516.255,1494.68 506.869,1486.06Z" style="fill:rgb(3,4,4);fill-rule:nonzero;"/>
        </g>
        <g transform="matrix(1,5.55112e-17,-5.55112e-17,1,-260.539,65.1235)">
            <path d="M1565.77,939.354C1556.83,921.855 1547.27,904.86 1537.07,888.117C1539.46,886.354 1541.6,884.089 1543.49,881.194C1612.35,771.924 1648.48,645.281 1727.54,542.054C1747.3,516.372 1703.62,491.321 1684.1,516.624C1608.07,615.949 1571.69,736.801 1507.74,843.175C1484.95,810.948 1459.77,780.484 1432.58,752.033C1435.1,750.145 1437.11,747.753 1438.75,745.236C1441.65,741.584 1443.53,737.305 1444.16,732.772C1450.08,730.129 1454.99,725.219 1457.38,717.162C1475.89,654.345 1499.55,593.919 1528.89,535.255C1536.82,519.268 1527.25,504.414 1514.53,499.125C1504.21,494.846 1491.88,496.86 1485.33,509.827C1454.23,572.266 1428.55,636.972 1408.79,703.818C1408.79,704.07 1408.79,704.322 1408.66,704.448C1403.88,706.084 1399.35,708.854 1395.82,713.386C1395.45,713.889 1395.32,714.393 1394.94,714.771C1380.59,701.552 1365.74,688.964 1350.38,677.004C1338.42,667.437 1326.08,658.373 1313.49,649.687C1314.37,648.302 1315.13,646.666 1315.76,644.903C1328.85,606.508 1340.94,567.86 1351.89,528.835C1354.15,520.653 1352.52,513.729 1348.62,508.442C1337.92,493.713 1309.84,492.454 1303.3,515.366C1293.1,551.747 1281.89,587.625 1269.81,623.376C1255.08,616.075 1239.34,609.907 1223.11,604.745C1209.64,600.339 1195.66,596.814 1181.44,593.919C1184.46,590.017 1186.09,584.855 1185.47,578.183C1178.79,513.603 1166.33,450.66 1146.69,388.723C1143.54,379.03 1136.62,373.617 1128.82,371.98C1112.07,368.078 1091.43,380.918 1098.1,402.193C1114.46,453.555 1126.3,505.924 1132.84,559.426C1133.73,565.595 1134.48,571.889 1135.11,578.183C1135.36,581.457 1136.37,584.352 1137.5,586.996C1117.11,584.729 1096.34,583.722 1075.57,584.1C1067.38,584.1 1059.33,584.352 1051.27,584.855C1059.45,579.442 1064.99,569.623 1063.61,559.803C1063.1,555.901 1061.34,551.999 1058.45,548.348C1057.82,547.593 1057.19,546.837 1056.43,546.082C1035.79,525.059 1026.97,491.447 1020.18,460.101C1017.91,449.401 1015.77,438.826 1013.63,429.258C1004.31,388.975 997.012,348.313 990.97,307.4C990.215,302.49 988.452,298.713 986.06,295.944C972.59,280.083 938.475,293.93 942.378,320.744C950.183,373.365 960.253,425.608 973.598,477.096C983.417,515.366 992.48,552.88 1020.81,581.708C1023.07,583.974 1025.34,585.485 1027.73,586.744C1000.54,589.387 973.85,594.045 948.42,600.591C932.81,525.814 921.983,450.281 917.83,373.869C914.43,311.554 901.968,224.566 923.998,164.896C932.81,140.726 961.386,122.22 989.962,127.633C1002.8,130.025 1019.29,151.048 1029.11,159.986C1053.66,182.142 1077.33,205.306 1102.63,226.707C1151.98,268.501 1204.22,306.519 1258.48,341.767C1265.53,346.299 1272.33,346.803 1278.24,344.789C1311.23,349.698 1311.6,411.005 1355.67,411.005C1370.02,411.005 1382.6,403.2 1394.44,395.647C1396.96,394.136 1399.35,392.625 1401.74,391.115C1409.04,386.708 1416.22,382.177 1423.52,377.645C1430.69,370.091 1437.24,371.98 1443.03,383.436C1448.44,386.96 1453.48,393.129 1458.39,399.549C1463.05,405.718 1467.45,412.264 1471.73,416.796C1477.4,422.838 1483.82,424.979 1489.99,424.475C1496.16,424.098 1501.95,421.076 1506.35,416.544C1509.88,416.292 1513.65,415.411 1517.43,413.271C1533.04,404.71 1552.17,392.374 1573.2,379.408C1626.45,346.173 1691.53,309.037 1740.38,321.373C1741.76,321.625 1743.15,322.003 1744.53,322.506C1837.43,351.838 1781.16,502.525 1759.64,564.587C1713.18,697.902 1639.67,819.635 1565.77,939.354ZM1588.56,1346.98C1534.8,1274.09 1448.44,1230.28 1357.55,1195.53C1273.59,1163.43 1185.97,1139.01 1116.35,1106.41C958.869,1032.64 795.341,921.855 617.211,963.021C644.654,919.086 676.755,878.802 711.5,839.651C756.19,789.547 802.013,733.527 857.529,695.132C923.117,649.687 1017.91,629.67 1108.17,635.84C1177.41,640.624 1244,660.765 1292.97,696.769C1495.02,845.19 1627.33,1097.59 1588.56,1346.98ZM1556.58,1450.08C1541.98,1481.3 1481.68,1500.05 1451.34,1506.1C1421.76,1512.01 1391.42,1512.77 1361.08,1510.38C1361.83,1507.23 1362.08,1503.83 1361.58,1500.18C1351.26,1429.56 1328.6,1387.39 1266.91,1350.25C1186.22,1301.91 1099.99,1261.12 1013.63,1224.24C929.159,1188.11 756.19,1094.95 691.736,1201.07C661.02,1141.03 631.563,1080.35 603.615,1018.91C766.136,968.434 917.83,1064.36 1060.08,1134.98C1198.56,1203.72 1361.71,1230.28 1487.09,1323.56C1525.61,1352.14 1581.88,1395.82 1556.58,1450.08ZM1198.43,1478.78C1112.83,1457.63 1028.74,1429.94 947.791,1394.94C884.469,1367.5 777.591,1331.37 731.894,1277.74C661.901,1195.91 846.2,1210.14 873.14,1218.32C943.636,1239.34 1008.09,1275.09 1074.31,1306.44C1124.03,1329.98 1173,1355.03 1220.96,1382.1C1246.65,1396.7 1277.11,1410.42 1292.97,1436.99C1304.81,1456.75 1308.46,1481.3 1311.6,1504.21C1273.08,1497.66 1234.94,1487.84 1198.43,1478.78ZM879.56,1620.91C909.017,1665.22 939.482,1708.9 970.702,1751.83C987.571,1775.12 1012.37,1799.42 1025.08,1824.97C1047.37,1869.53 1039.56,1891.31 996.76,1913.09C942.125,1940.91 875.531,1955.64 814.979,1960.93C771.423,1964.7 728.495,1961.18 685.945,1967.98C689.973,1942.93 689.344,1914.98 699.667,1892.95C719.557,1850.65 752.666,1813.39 780.109,1775.87C790.18,1762.03 781.997,1746.67 767.268,1741.13C765.128,1740.37 763.114,1739.74 761.226,1739.62C742.594,1736.85 732.775,1756.86 721.319,1769.08C686.575,1805.96 655.229,1857.32 641.381,1906.42C632.947,1936.25 643.773,1975.91 602.23,1976.54C581.837,1976.79 559.554,1974.02 538.405,1968.35C522.921,1964.45 507.941,1958.91 494.597,1952.12C542.308,1908.31 590.145,1864.5 637.856,1820.69C643.647,1815.4 649.815,1808.73 653.214,1801.68C656.11,1795.76 657.117,1789.47 654.348,1783.43C650.319,1774.36 639.115,1770.33 629.295,1771.72C619.477,1773.1 610.791,1778.52 602.607,1784.18C566.101,1808.98 532.237,1837.94 502.15,1870.29C483.896,1889.8 465.769,1911.45 440.465,1919.76C404.21,1931.72 364.429,1912.33 336.608,1885.9C324.397,1874.32 312.69,1857.83 317.977,1841.84C322.761,1827.36 339,1820.56 353.477,1815.78C409.749,1797.4 467.783,1784.81 526.194,1775.5C551.498,1771.47 664.041,1776.13 647.423,1727.91C628.415,1672.77 411.763,1753.72 375.255,1763.29C357.506,1767.94 322.257,1591.32 320.243,1574.08C319.992,1572.31 319.866,1570.68 319.74,1568.92C316.214,1535.81 315.459,1502.45 317.474,1469.21C319.361,1435.35 324.271,1401.61 331.95,1368.63C363.297,1233.93 443.235,1114.34 554.771,1032.64C604.37,1142.79 658.627,1250.8 717.668,1356.17C768.023,1446.43 822.029,1534.8 879.56,1620.91ZM365.94,999.527C371.227,969.063 375.381,931.17 414.029,921.352C435.178,915.938 479.616,932.807 501.395,936.583C521.662,940.109 535.258,925.38 532.363,905.616C520.53,825.048 574.535,726.353 629.8,668.57C641.884,655.855 655.229,646.666 669.329,640.372C720.061,617.208 780.99,630.678 835.122,649.687C797.481,674.864 764.75,707.091 733.657,740.578C730.887,737.808 727.362,735.542 722.705,734.409C704.451,729.5 690.854,718.169 682.042,701.679C681.791,701.175 681.539,700.797 681.162,700.294C665.426,673.983 623.631,699.035 638.612,727.108C643.27,735.919 649.186,743.977 656.11,751.152C667.692,763.615 682.168,773.182 698.282,779.351C695.638,782.247 692.995,785.142 690.478,787.911C678.015,801.633 665.929,815.354 654.096,829.328C651.956,827.943 649.564,826.811 646.668,826.432C644.654,826.181 642.766,825.677 640.752,825.174C640.249,825.174 639.871,825.048 639.619,825.048C639.493,824.922 639.367,824.922 639.115,824.796C637.856,824.041 636.471,823.16 635.213,822.405C634.583,821.9 634.08,821.397 633.576,820.893C632.821,820.138 632.317,819.635 632.065,819.257C631.184,817.998 630.429,816.74 629.548,815.354C629.422,815.103 629.295,814.977 629.17,814.725C629.17,814.474 629.17,814.222 629.044,813.844C628.667,811.83 628.163,809.941 627.785,807.927C627.408,805.032 626.274,802.514 624.513,800.123C618.596,791.813 606.133,787.282 596.817,790.303C582.592,794.835 577.179,807.298 579.319,821.271C580.83,831.216 585.11,840.784 591.529,848.967C598.831,858.785 609.028,866.716 620.232,871.248C594.551,904.608 571.011,939.479 551.12,977.246C547.595,977.497 543.818,978.63 540.042,981.399C526.572,990.841 513.479,1000.66 501.017,1010.73C501.017,1010.73 501.143,1010.73 501.017,1010.86C448.145,1053.78 403.832,1103.76 368.332,1158.27C358.638,1105.78 356.75,1052.65 365.94,999.527ZM1759.26,697.398C1800.42,609.152 1843.1,509.701 1844.23,411.131C1844.36,397.661 1843.35,384.569 1840.96,371.98C1831.52,320.492 1800.42,279.075 1741.63,271.144C1655.28,259.563 1567.53,327.919 1496.03,367.574C1482.56,350.453 1468.59,331.067 1448.95,323.639C1419.87,312.687 1400.86,336.858 1376.44,347.684C1352.64,358.258 1360.07,358.888 1347.48,341.767C1340.56,332.451 1338.29,321.877 1329.35,313.442C1314.88,299.847 1296.75,294.182 1277.61,293.93C1190,235.77 1118.49,162.882 1036.16,98.805C993.739,65.823 937.845,55.248 899.828,100.315C856.774,151.425 864.831,239.42 865.209,300.854C865.838,406.977 878.553,512.344 900.205,616.201C895.673,617.963 890.89,619.726 886.358,621.74C883.714,616.831 879.434,612.676 873.014,610.284C780.612,574.407 670.587,553.761 594.173,632.944C532.866,696.518 482.764,790.681 481.378,881.194C423.093,868.479 363.8,856.142 334.216,922.107C296.45,1006.2 305.262,1116.22 326.286,1202.83C327.796,1208.88 330.818,1213.28 334.72,1216.18C247.732,1386.63 240.305,1591.95 326.537,1777.51C283.232,1793.37 238.668,1818.42 262.335,1871.67C283.861,1920.14 374.626,1979.56 425.988,1985.73C440.591,1987.49 451.04,1984.85 460.355,1979.43C461.363,1988.5 466.649,1997.06 477.351,2000.83C517.255,2015.06 607.014,2045.65 654.473,2019.72C659.509,2022.74 665.803,2023.87 673.105,2021.86C734.789,2004.86 802.769,2015.44 866.215,2004.86C923.872,1995.42 986.312,1978.55 1037.3,1948.84C1151.6,1882.37 1061.84,1792.37 1007.59,1717.21C926.39,1604.92 851.487,1488.47 782.627,1368.63C936.712,1457 1107.42,1516.42 1282.02,1548.65C1362.97,1563.63 1449.07,1571.18 1525.74,1534.04C1566.4,1514.41 1609.45,1480.29 1619.02,1438.24C1619.52,1437.11 1620.03,1435.98 1620.41,1434.72C1626.07,1415.71 1630.73,1396.58 1634.38,1377.31C1635.26,1373.04 1636.02,1368.75 1636.77,1364.47C1655.91,1252.94 1643.07,1139.26 1605.8,1033.14C1601.27,1019.8 1596.23,1006.7 1590.82,993.611C1591.83,992.352 1592.84,991.093 1593.84,989.583C1652.76,894.412 1711.92,798.989 1759.26,697.398Z" style="fill:rgb(3,4,4);fill-rule:nonzero;"/>
        </g>
        <g transform="matrix(1,5.55112e-17,-5.55112e-17,1,-260.539,65.1235)">
            <path d="M919.189,800.885C869.151,779.129 831.628,848.972 816.709,885.727C807.572,908.237 844.09,918.03 853.126,895.767C859.55,879.94 868.251,865.038 879.312,852.001C893.367,835.437 906.044,831.699 919.949,850.93C939.531,878.014 946.056,913.768 945.145,946.418C944.465,970.729 982.232,970.711 982.911,946.418C984.249,898.476 968.902,822.5 919.189,800.885Z" style="fill:rgb(3,4,4);fill-rule:nonzero;"/>
        </g>
        <g transform="matrix(1,5.55112e-17,-5.55112e-17,1,-260.539,65.1235)">
            <path d="M1208.45,1013.46C1201.77,965.113 1201.57,899.187 1154.99,869.567C1108.18,839.796 1059.55,874.691 1028.17,909.747C1012.01,927.811 1038.63,954.609 1054.88,936.452C1079.7,908.712 1123.93,873.702 1150.75,919.355C1167.88,948.5 1167.53,990.935 1172.03,1023.5C1175.34,1047.47 1211.74,1037.27 1208.45,1013.46Z" style="fill:rgb(3,4,4);fill-rule:nonzero;"/>
        </g>
        <g transform="matrix(1,5.55112e-17,-5.55112e-17,1,-260.539,65.1235)">
            <path d="M1368.75,938.7C1323.83,917.538 1274.48,935.977 1247.82,975.976C1234.31,996.258 1267,1015.19 1280.43,995.037C1299.34,966.671 1337.71,957.762 1364.77,980.651C1391.8,1003.52 1387.71,1040.54 1384.68,1072.29C1382.38,1096.47 1420.16,1096.31 1422.45,1072.29C1427.44,1020 1422.06,963.81 1368.75,938.7Z" style="fill:rgb(3,4,4);fill-rule:nonzero;"/>
        </g>
        <g transform="matrix(1,5.55112e-17,-5.55112e-17,1,-260.539,65.1235)">
            <path d="M1121.92,816.469C1117.25,773.898 1105.88,716.424 1063.28,695.494C1021.15,674.788 977.162,697.99 944.016,724.159C924.952,739.209 951.838,765.771 970.72,750.863C992.392,733.754 1028.88,711.928 1054.85,734.568C1075.26,752.352 1081.38,791.154 1084.16,816.469C1086.78,840.366 1124.58,840.634 1121.92,816.469Z" style="fill:rgb(3,4,4);fill-rule:nonzero;"/>
        </g>
        <g transform="matrix(1,5.55112e-17,-5.55112e-17,1,-260.539,65.1235)">
            <path d="M1360.15,865.275C1350.72,827.045 1326.05,788.107 1289.28,771.03C1256.61,755.859 1211.72,772.172 1213.41,812.902C1214.42,837.118 1252.19,837.245 1251.18,812.902C1250.01,784.608 1292.9,818.822 1299.27,826.158C1311.65,840.428 1319.24,857.101 1323.73,875.315C1329.55,898.899 1365.98,888.91 1360.15,865.275Z" style="fill:rgb(3,4,4);fill-rule:nonzero;"/>
        </g>
    </g>
    <g transform="matrix(1,0,0,1,-1451.75,-1915.08)">
        <g transform="matrix(1600,0,0,1600,1682.15,4271.29)">
            <path d="M0.234,-0.517L0.234,-0.672L0.092,-0.672L0.092,-0.517L0.006,-0.517L0.006,-0.422L0.092,-0.422L0.092,-0.117C0.092,-0.091 0.096,-0.07 0.105,-0.054C0.114,-0.038 0.126,-0.026 0.141,-0.017C0.156,-0.008 0.173,-0.003 0.193,0.001C0.212,0.004 0.233,0.005 0.255,0.005C0.269,0.005 0.283,0.005 0.298,0.004C0.313,0.003 0.326,0.002 0.338,-0L0.338,-0.11C0.331,-0.109 0.324,-0.108 0.317,-0.107C0.31,-0.106 0.302,-0.106 0.294,-0.106C0.27,-0.106 0.254,-0.11 0.246,-0.118C0.238,-0.126 0.234,-0.142 0.234,-0.166L0.234,-0.422L0.338,-0.422L0.338,-0.517L0.234,-0.517Z" style="fill-rule:nonzero;"/>
        </g>
        <g transform="matrix(1600,0,0,1600,2205.35,4271.29)">
            <path d="M0.048,-0.358C0.05,-0.391 0.058,-0.419 0.073,-0.441C0.088,-0.463 0.106,-0.481 0.129,-0.494C0.152,-0.507 0.177,-0.517 0.206,-0.523C0.234,-0.528 0.262,-0.531 0.291,-0.531C0.317,-0.531 0.343,-0.529 0.37,-0.526C0.397,-0.522 0.421,-0.515 0.443,-0.504C0.465,-0.493 0.483,-0.478 0.497,-0.46C0.511,-0.44 0.518,-0.415 0.518,-0.384L0.518,-0.115C0.518,-0.092 0.519,-0.069 0.522,-0.048C0.525,-0.027 0.529,-0.011 0.536,-0L0.392,-0C0.389,-0.008 0.387,-0.016 0.386,-0.025C0.384,-0.033 0.383,-0.041 0.382,-0.05C0.359,-0.027 0.333,-0.01 0.302,-0.001C0.271,0.008 0.24,0.013 0.208,0.013C0.183,0.013 0.16,0.01 0.139,0.004C0.118,-0.002 0.099,-0.011 0.083,-0.024C0.067,-0.037 0.055,-0.053 0.046,-0.072C0.037,-0.091 0.032,-0.114 0.032,-0.141C0.032,-0.17 0.037,-0.195 0.048,-0.214C0.058,-0.233 0.071,-0.248 0.088,-0.259C0.104,-0.27 0.123,-0.279 0.144,-0.285C0.165,-0.29 0.186,-0.295 0.207,-0.298C0.228,-0.301 0.249,-0.304 0.27,-0.306C0.291,-0.308 0.309,-0.311 0.325,-0.315C0.341,-0.319 0.354,-0.325 0.363,-0.333C0.372,-0.34 0.377,-0.351 0.376,-0.366C0.376,-0.381 0.374,-0.394 0.369,-0.403C0.364,-0.412 0.357,-0.419 0.349,-0.424C0.34,-0.428 0.331,-0.432 0.32,-0.434C0.309,-0.435 0.297,-0.436 0.284,-0.436C0.256,-0.436 0.234,-0.43 0.218,-0.418C0.202,-0.406 0.193,-0.386 0.19,-0.358L0.048,-0.358ZM0.376,-0.253C0.37,-0.248 0.363,-0.243 0.354,-0.241C0.345,-0.238 0.335,-0.235 0.325,-0.233C0.314,-0.231 0.303,-0.229 0.292,-0.228C0.281,-0.227 0.269,-0.225 0.258,-0.223C0.247,-0.221 0.237,-0.218 0.227,-0.215C0.216,-0.212 0.207,-0.207 0.2,-0.202C0.192,-0.196 0.186,-0.189 0.181,-0.18C0.176,-0.171 0.174,-0.16 0.174,-0.147C0.174,-0.134 0.176,-0.124 0.181,-0.115C0.186,-0.106 0.192,-0.099 0.2,-0.095C0.208,-0.09 0.217,-0.086 0.228,-0.084C0.239,-0.082 0.25,-0.081 0.261,-0.081C0.289,-0.081 0.311,-0.086 0.326,-0.095C0.341,-0.104 0.353,-0.116 0.36,-0.129C0.367,-0.141 0.372,-0.155 0.374,-0.168C0.375,-0.181 0.376,-0.192 0.376,-0.2L0.376,-0.253Z" style="fill-rule:nonzero;"/>
        </g>
        <g transform="matrix(1600,0,0,1600,3067.75,4271.29)">
            <path d="M0.2,-0.597L0.2,-0.714L0.058,-0.714L0.058,-0.597L0.2,-0.597ZM0.058,-0.517L0.058,-0L0.2,-0L0.2,-0.517L0.058,-0.517Z" style="fill-rule:nonzero;"/>
        </g>
        <g transform="matrix(1600,0,0,1600,3424.55,4271.29)">
            <path d="M0.309,0.064L0.525,-0.517L0.378,-0.517L0.265,-0.163L0.263,-0.163L0.146,-0.517L-0.005,-0.517L0.176,-0.032C0.18,-0.022 0.182,-0.011 0.182,-0C0.182,0.015 0.178,0.029 0.169,0.042C0.16,0.055 0.146,0.062 0.127,0.064C0.113,0.065 0.099,0.064 0.085,0.063C0.071,0.062 0.057,0.06 0.044,0.059L0.044,0.176C0.059,0.177 0.073,0.179 0.088,0.18C0.102,0.181 0.116,0.181 0.131,0.181C0.18,0.181 0.218,0.172 0.245,0.154C0.272,0.136 0.294,0.106 0.309,0.064Z" style="fill-rule:nonzero;"/>
        </g>
        <g transform="matrix(1600,0,0,1600,4182.95,4271.29)">
            <path d="M0.048,-0.358C0.05,-0.391 0.058,-0.419 0.073,-0.441C0.088,-0.463 0.106,-0.481 0.129,-0.494C0.152,-0.507 0.177,-0.517 0.206,-0.523C0.234,-0.528 0.262,-0.531 0.291,-0.531C0.317,-0.531 0.343,-0.529 0.37,-0.526C0.397,-0.522 0.421,-0.515 0.443,-0.504C0.465,-0.493 0.483,-0.478 0.497,-0.46C0.511,-0.44 0.518,-0.415 0.518,-0.384L0.518,-0.115C0.518,-0.092 0.519,-0.069 0.522,-0.048C0.525,-0.027 0.529,-0.011 0.536,-0L0.392,-0C0.389,-0.008 0.387,-0.016 0.386,-0.025C0.384,-0.033 0.383,-0.041 0.382,-0.05C0.359,-0.027 0.333,-0.01 0.302,-0.001C0.271,0.008 0.24,0.013 0.208,0.013C0.183,0.013 0.16,0.01 0.139,0.004C0.118,-0.002 0.099,-0.011 0.083,-0.024C0.067,-0.037 0.055,-0.053 0.046,-0.072C0.037,-0.091 0.032,-0.114 0.032,-0.141C0.032,-0.17 0.037,-0.195 0.048,-0.214C0.058,-0.233 0.071,-0.248 0.088,-0.259C0.104,-0.27 0.123,-0.279 0.144,-0.285C0.165,-0.29 0.186,-0.295 0.207,-0.298C0.228,-0.301 0.249,-0.304 0.27,-0.306C0.291,-0.308 0.309,-0.311 0.325,-0.315C0.341,-0.319 0.354,-0.325 0.363,-0.333C0.372,-0.34 0.377,-0.351 0.376,-0.366C0.376,-0.381 0.374,-0.394 0.369,-0.403C0.364,-0.412 0.357,-0.419 0.349,-0.424C0.34,-0.428 0.331,-0.432 0.32,-0.434C0.309,-0.435 0.297,-0.436 0.284,-0.436C0.256,-0.436 0.234,-0.43 0.218,-0.418C0.202,-0.406 0.193,-0.386 0.19,-0.358L0.048,-0.358ZM0.376,-0.253C0.37,-0.248 0.363,-0.243 0.354,-0.241C0.345,-0.238 0.335,-0.235 0.325,-0.233C0.314,-0.231 0.303,-0.229 0.292,-0.228C0.281,-0.227 0.269,-0.225 0.258,-0.223C0.247,-0.221 0.237,-0.218 0.227,-0.215C0.216,-0.212 0.207,-0.207 0.2,-0.202C0.192,-0.196 0.186,-0.189 0.181,-0.18C0.176,-0.171 0.174,-0.16 0.174,-0.147C0.174,-0.134 0.176,-0.124 0.181,-0.115C0.186,-0.106 0.192,-0.099 0.2,-0.095C0.208,-0.09 0.217,-0.086 0.228,-0.084C0.239,-0.082 0.25,-0.081 0.261,-0.081C0.289,-0.081 0.311,-0.086 0.326,-0.095C0.341,-0.104 0.353,-0.116 0.36,-0.129C0.367,-0.141 0.372,-0.155 0.374,-0.168C0.375,-0.181 0.376,-0.192 0.376,-0.2L0.376,-0.253Z" style="fill-rule:nonzero;"/>
        </g>
        <g transform="matrix(1600,0,0,1600,5029.35,4271.29)">
            <path d="M0.067,-0.714L0.067,-0L0.209,-0L0.209,-0.178L0.264,-0.231L0.406,-0L0.578,-0L0.361,-0.327L0.556,-0.517L0.388,-0.517L0.209,-0.331L0.209,-0.714L0.067,-0.714Z" style="fill-rule:nonzero;"/>
        </g>
        <g transform="matrix(1600,0,0,1600,5891.75,4271.29)">
            <path d="M0.2,-0.597L0.2,-0.714L0.058,-0.714L0.058,-0.597L0.2,-0.597ZM0.058,-0.517L0.058,-0L0.2,-0L0.2,-0.517L0.058,-0.517Z" style="fill-rule:nonzero;"/>
        </g>
    </g>
    <g id="_-鯛焼き-" serif:id="(鯛焼き)" transform="matrix(1,0,0,1,1370.05,-1318.33)">
        <path d="M2181.95,4036.09L2181.95,4236.49C2181.95,4248.49 2178.95,4250.29 2159.75,4250.29C2142.95,4250.29 2123.75,4249.09 2108.15,4246.69C2118.95,4272.49 2122.55,4289.89 2124.95,4318.09C2144.15,4318.69 2153.15,4319.29 2162.15,4319.29C2226.35,4319.29 2247.35,4303.09 2247.35,4255.09L2247.35,3854.89C2247.35,3822.49 2247.95,3805.09 2250.35,3782.29C2231.15,3784.69 2219.75,3785.29 2184.95,3785.29L2025.95,3785.29C1992.35,3785.29 1980.35,3784.69 1959.35,3782.29C1961.15,3804.49 1962.35,3832.69 1962.35,3854.89L1962.35,3861.49C1961.75,3900.49 1961.15,3946.09 1961.15,3998.89C1959.95,4127.29 1956.35,4177.09 1941.95,4228.69C1940.75,4225.09 1940.15,4222.09 1939.55,4220.29C1938.95,4216.69 1937.75,4213.69 1937.15,4212.49C1935.35,4206.49 1934.75,4204.69 1925.15,4180.69L1889.15,4191.49C1899.35,4221.49 1903.55,4236.49 1908.35,4262.29L1935.35,4248.49C1930.55,4258.69 1928.75,4262.89 1920.95,4276.09C1945.55,4289.89 1959.35,4302.49 1979.75,4327.69C2000.15,4283.89 2010.35,4246.09 2016.95,4185.49C2022.35,4140.49 2023.55,4121.89 2024.75,4036.09L2181.95,4036.09ZM2025.95,3884.89L2025.95,3852.49L2072.15,3852.49L2072.15,3884.89L2025.95,3884.89ZM2025.35,3943.69L2072.15,3943.69L2072.15,3977.89L2025.35,3977.89L2025.35,3943.69ZM2181.95,3977.89L2132.75,3977.89L2132.75,3943.69L2181.95,3943.69L2181.95,3977.89ZM2181.95,3884.89L2132.75,3884.89L2132.75,3852.49L2181.95,3852.49L2181.95,3884.89ZM1914.35,3797.29C1906.55,3799.09 1900.55,3799.69 1886.15,3799.69L1839.95,3799.69C1844.15,3788.89 1845.95,3783.49 1845.95,3783.49C1850.75,3772.09 1850.75,3772.09 1851.95,3769.09L1778.15,3758.89C1764.95,3817.09 1734.95,3875.29 1694.75,3922.09C1708.55,3932.89 1714.55,3939.49 1729.55,3957.49L1729.55,4114.69C1729.55,4147.09 1729.55,4155.49 1727.75,4169.29C1748.75,4168.69 1758.35,4168.69 1784.75,4168.69L1884.35,4168.69C1917.35,4168.69 1920.95,4168.69 1941.35,4169.29C1940.15,4154.29 1940.15,4145.89 1940.15,4109.89L1940.15,3965.89C1940.15,3939.49 1940.75,3921.49 1941.95,3906.49C1929.35,3907.69 1919.75,3908.29 1897.55,3908.29C1904.15,3897.49 1915.55,3876.49 1922.75,3860.89C1929.35,3847.09 1934.15,3838.09 1937.75,3832.69L1914.35,3797.29ZM1786.55,3908.29C1796.15,3892.69 1799.75,3886.09 1810.55,3863.89L1852.55,3863.89C1844.15,3883.69 1838.15,3896.29 1829.75,3908.29L1786.55,3908.29ZM1786.55,3967.69L1812.95,3967.69L1812.95,4008.49L1786.55,4008.49L1786.55,3967.69ZM1786.55,4062.49L1812.95,4062.49L1812.95,4108.69L1786.55,4108.69L1786.55,4062.49ZM1859.75,3967.69L1886.75,3967.69L1886.75,4008.49L1859.75,4008.49L1859.75,3967.69ZM1859.75,4062.49L1886.75,4062.49L1886.75,4108.69L1859.75,4108.69L1859.75,4062.49ZM1731.35,4175.29C1722.95,4222.69 1714.55,4247.89 1692.95,4288.09L1738.55,4331.29C1760.15,4286.29 1769.75,4252.09 1777.55,4193.29L1731.35,4175.29ZM1780.55,4194.49C1783.55,4218.49 1786.55,4270.69 1786.55,4301.29L1786.55,4322.29L1838.15,4310.29C1835.15,4264.09 1829.75,4223.89 1822.55,4186.09L1780.55,4194.49ZM2162.15,4096.09C2162.15,4078.69 2162.75,4066.69 2163.95,4055.89C2155.55,4057.09 2144.15,4057.69 2124.95,4057.69L2072.15,4057.69C2054.75,4057.69 2043.95,4057.09 2032.55,4055.89C2033.75,4067.89 2034.35,4079.89 2034.35,4097.89L2034.35,4231.69C2034.35,4253.29 2033.75,4265.89 2032.55,4276.69L2088.95,4276.69L2088.95,4237.69L2124.95,4237.69C2139.95,4237.69 2154.35,4238.29 2163.35,4239.49C2162.15,4230.49 2162.15,4225.69 2162.15,4204.09L2162.15,4096.09ZM2085.35,4117.69L2111.75,4117.69L2111.75,4174.09L2085.35,4174.09L2085.35,4117.69ZM1836.35,4193.89C1844.75,4227.49 1850.75,4261.69 1854.35,4304.89L1898.15,4291.69C1891.55,4249.09 1884.95,4217.29 1875.95,4184.89L1836.35,4193.89Z" style="fill-rule:nonzero;"/>
        <g transform="matrix(1,0,0,1,7,0)">
            <path d="M2564.75,4120.69C2561.75,4163.29 2552.15,4188.49 2529.35,4213.09C2509.55,4234.69 2483.15,4249.69 2442.95,4262.89C2462.75,4282.09 2474.15,4298.29 2487.35,4327.69C2560.55,4296.49 2602.55,4257.49 2622.35,4202.29C2630.75,4178.89 2633.75,4165.09 2637.95,4120.69L2675.75,4120.69L2675.75,4266.49C2675.75,4306.09 2693.75,4316.89 2762.15,4316.89C2850.95,4316.89 2862.35,4304.29 2866.55,4199.89C2837.75,4192.09 2822.75,4186.09 2801.15,4173.49C2801.15,4208.89 2799.35,4228.69 2796.35,4237.09C2793.95,4244.89 2788.55,4247.29 2772.95,4247.29C2751.95,4247.29 2748.35,4245.49 2748.35,4235.29L2748.35,4120.69L2789.15,4120.69C2815.55,4120.69 2834.15,4121.89 2853.35,4124.29L2853.35,4050.49C2835.35,4052.89 2823.35,4053.49 2794.55,4053.49L2794.55,4011.49L2812.55,4011.49C2833.55,4011.49 2844.95,4012.09 2861.75,4014.49L2861.75,3941.29C2844.95,3943.69 2833.55,3944.29 2812.55,3944.29L2794.55,3944.29L2794.55,3928.09C2794.55,3917.89 2795.15,3911.89 2796.95,3903.49L2723.75,3903.49C2725.55,3912.49 2725.55,3916.69 2725.55,3928.09L2725.55,3944.29L2612.15,3944.29L2612.15,3927.49C2612.15,3916.09 2612.75,3910.69 2613.95,3903.49L2543.15,3903.49C2544.95,3913.09 2545.55,3917.89 2545.55,3928.69L2545.55,3944.29L2535.35,3944.29C2526.35,3944.29 2521.55,3944.29 2511.95,3943.69C2526.95,3923.89 2526.95,3923.89 2537.75,3910.09L2508.35,3884.89C2523.35,3883.09 2547.35,3881.89 2568.35,3881.89L2634.35,3881.89L2634.35,3896.29C2634.35,3912.49 2633.75,3919.09 2632.55,3929.29L2705.15,3929.29C2703.35,3919.69 2703.35,3913.69 2703.35,3895.69L2703.35,3881.89L2783.75,3881.89C2803.55,3881.89 2823.35,3883.09 2841.35,3884.89L2841.35,3811.09C2823.95,3813.49 2805.95,3814.69 2781.35,3814.69L2704.55,3814.69L2704.55,3802.69C2704.55,3786.49 2705.15,3776.89 2707.55,3766.09L2630.15,3766.09C2632.55,3778.09 2633.15,3786.49 2633.15,3802.09L2633.15,3814.69L2568.35,3814.69C2541.95,3814.69 2526.95,3814.09 2507.75,3811.09L2507.75,3884.29L2485.55,3865.69C2479.55,3880.69 2472.95,3892.09 2460.35,3911.29C2460.95,3898.69 2460.95,3895.69 2460.95,3887.29C2461.55,3789.49 2461.55,3789.49 2463.95,3769.09L2383.55,3769.09C2387.15,3793.69 2387.75,3806.89 2387.75,3863.89C2387.75,4006.69 2381.15,4086.49 2365.55,4143.49C2351.15,4192.69 2329.55,4229.29 2295.35,4261.69C2315.75,4279.09 2327.75,4294.09 2347.55,4323.49C2388.35,4280.89 2413.55,4237.69 2430.95,4183.09C2444.75,4204.09 2453.15,4214.29 2478.95,4240.69C2490.95,4210.09 2498.75,4196.29 2516.75,4169.29C2485.55,4145.89 2469.35,4129.09 2448.95,4100.89C2453.15,4072.69 2454.95,4050.49 2457.35,4006.09C2473.55,3989.89 2481.35,3981.49 2489.75,3971.29L2489.75,4013.89C2507.75,4012.09 2516.75,4011.49 2535.35,4011.49L2545.55,4011.49L2545.55,4053.49L2538.35,4053.49C2514.35,4053.49 2507.15,4052.89 2493.35,4051.09L2493.35,4123.69C2507.75,4121.29 2525.15,4120.69 2553.95,4120.69L2564.75,4120.69ZM2612.15,4053.49L2612.15,4011.49L2725.55,4011.49L2725.55,4053.49L2612.15,4053.49ZM2353.55,4068.49C2364.35,4018.09 2369.75,3963.49 2370.35,3886.69L2315.75,3880.69L2315.75,3892.09C2315.75,3914.29 2314.55,3937.09 2312.15,3965.29C2309.75,3998.89 2307.35,4012.69 2299.55,4039.69L2353.55,4068.49Z" style="fill-rule:nonzero;"/>
        </g>
        <g transform="matrix(1,0,0,1,-30,0)">
            <path d="M2964.95,3928.09C2975.15,3927.49 2979.95,3927.49 2988.95,3927.49C3084.95,3926.29 3104.75,3925.69 3166.55,3919.69C3169.55,3926.89 3170.75,3928.69 3176.15,3940.69C3180.35,3949.69 3182.15,3953.29 3185.75,3959.89C3126.95,3967.69 3077.15,3970.69 3014.15,3970.69C2982.95,3970.69 2973.35,3970.09 2956.55,3967.69L2959.55,4044.49C2970.35,4043.29 2975.15,4043.29 2985.95,4042.69C3103.55,4039.09 3162.35,4035.49 3217.55,4027.69C3221.15,4033.09 3221.15,4033.09 3225.35,4040.29C3234.95,4055.89 3235.55,4057.09 3242.75,4067.29C3249.95,4077.49 3251.15,4078.69 3254.75,4082.89C3225.35,4076.29 3194.75,4073.29 3157.55,4073.29C3106.55,4073.29 3068.75,4079.89 3035.15,4094.89C2993.15,4112.89 2966.15,4150.09 2966.15,4189.69C2966.15,4213.09 2974.55,4236.49 2988.95,4253.89C3017.15,4289.29 3075.95,4307.29 3160.55,4307.29C3215.75,4307.29 3270.95,4300.69 3324.35,4287.49C3347.75,4281.49 3348.95,4281.49 3365.15,4278.49L3352.55,4191.49C3311.75,4212.49 3227.15,4229.89 3164.15,4229.89C3143.75,4229.89 3116.75,4227.49 3102.35,4224.49C3075.35,4217.89 3061.55,4206.49 3061.55,4189.09C3061.55,4159.09 3102.35,4142.29 3177.35,4142.29C3232.55,4142.29 3270.35,4149.49 3309.35,4168.09L3379.55,4126.69C3338.15,4077.49 3330.35,4066.69 3300.35,4016.29C3312.35,4013.89 3314.75,4013.29 3342.35,4007.89C3383.15,3998.89 3407.15,3994.09 3414.95,3992.89L3407.75,3916.09C3375.35,3928.09 3339.95,3936.49 3267.35,3949.69C3257.75,3929.89 3257.15,3928.69 3248.75,3909.49C3267.95,3907.09 3320.75,3896.29 3391.55,3881.29L3384.35,3806.29C3343.55,3820.09 3282.35,3832.69 3222.35,3841.09C3207.95,3805.09 3203.15,3789.49 3200.75,3773.29L3111.35,3785.29C3116.15,3793.69 3117.95,3797.89 3123.95,3812.89C3128.15,3823.09 3130.55,3829.09 3131.75,3830.89C3137.75,3845.29 3137.75,3845.29 3139.55,3850.09C3115.55,3853.09 3059.75,3855.49 3024.95,3855.49C2999.75,3855.49 2979.35,3854.89 2960.75,3853.09L2964.95,3928.09Z" style="fill-rule:nonzero;"/>
        </g>
    </g>
</svg>
